<svg width="350" height="170" viewBox="0 0 350 170" fill="none" xmlns="http://www.w3.org/2000/svg">
  <defs>
    <linearGradient id="bgGradient" x1="0" y1="0" x2="350" y2="170" gradientUnits="userSpaceOnUse">
      <stop offset="0" stop-color="#090D15" />
      <stop offset="1" stop-color="#140914" />
    </linearGradient>
    <filter id="softGlow" x="-20%" y="-20%" width="140%" height="140%">
      <feDropShadow dx="0" dy="0" stdDeviation="1.4" flood-color="#00CFFF" flood-opacity="0.25" />
    </filter>
    <clipPath id="progressClip">
      <rect x="25" y="55" width="300" height="8" rx="5" />
    </clipPath>
  </defs>

  <rect x="0.5" y="0.5" width="349" height="169" rx="6" fill="url(#bgGradient)" stroke="#1A0010" />
  <text x="25" y="35" font-family="'Share Tech Mono', 'Segoe UI', sans-serif" font-size="18" font-weight="600" fill="#FF315A">Top Languages by Repo</text>

  <rect x="25" y="55" width="300" height="8" rx="5" fill="#0A0F18" />
  <g clip-path="url(#progressClip)" filter="url(#softGlow)">
    <rect x="25.0000" y="55" width="126.3158" height="8" fill="#00E5FF" />
    <rect x="151.3158" y="55" width="63.1579" height="8" fill="#2F6BFF" />
    <rect x="214.4737" y="55" width="47.3684" height="8" fill="#FF6B35" />
    <rect x="261.8421" y="55" width="47.3684" height="8" fill="#FF315A" />
    <rect x="309.2105" y="55" width="15.7895" height="8" fill="#FFB347" />
  </g>

  <g font-family="'Share Tech Mono', 'Segoe UI', sans-serif" font-size="11" fill="#00CFFF">
    <circle cx="30" cy="86" r="5" fill="#00E5FF" />
    <text x="40" y="90">Dart 42.11%</text>
    <circle cx="180" cy="86" r="5" fill="#2F6BFF" />
    <text x="190" y="90">Python 21.05%</text>
    <circle cx="30" cy="111" r="5" fill="#FF6B35" />
    <text x="40" y="115">HTML 15.79%</text>
    <circle cx="180" cy="111" r="5" fill="#FF315A" />
    <text x="190" y="115">C# 15.79%</text>
    <circle cx="30" cy="136" r="5" fill="#FFB347" />
    <text x="40" y="140">JavaScript 5.26%</text>
  </g>

  <text x="25" y="160" font-family="'Share Tech Mono', 'Segoe UI', sans-serif" font-size="8" fill="#5C8DA0">Updated: 2026-04-15 04:52 UTC</text>
</svg>
