<svg width="1000" height="360" viewBox="0 0 1000 360" fill="none" xmlns="http://www.w3.org/2000/svg">
  <defs>
    <linearGradient id="bgGradient" x1="0" y1="0" x2="1000" y2="360" gradientUnits="userSpaceOnUse">
      <stop offset="0" stop-color="#0B111A" />
      <stop offset="1" stop-color="#140914" />
    </linearGradient>
    <filter id="titleGlow" x="-20%" y="-40%" width="150%" height="200%">
      <feDropShadow dx="0" dy="0" stdDeviation="2" flood-color="#00CFFF" flood-opacity="0.35" />
    </filter>
  </defs>

  <rect x="0.5" y="0.5" width="999" height="359" rx="12" fill="url(#bgGradient)" stroke="#1A2C3D" />
  <text x="30" y="42" font-family="'Share Tech Mono', 'Segoe UI', sans-serif" font-size="30" font-weight="700" fill="#00CFFF" filter="url(#titleGlow)">
    CUSTOM TROPHY GRID
  </text>
  <text x="970" y="42" text-anchor="end" font-family="'Share Tech Mono', 'Segoe UI', sans-serif" font-size="13" fill="#FF6633">
    PROFILE COMPLETION: 56%
  </text>
  <text x="30" y="66" font-family="'Share Tech Mono', 'Segoe UI', sans-serif" font-size="12" fill="#5CA1B8">
    AUTO-GENERATED // USER: dario-gms
  </text>

  
  <g transform="translate(30,92)">
    <rect width="223" height="108" rx="10" fill="#110B16" stroke="#1A0010" />
    <circle cx="18" cy="18" r="8" fill="#00CFFF" />
    <text x="34" y="23" font-family="'Share Tech Mono', 'Segoe UI', sans-serif" font-size="13" fill="#FF315A">STAR COLLECTOR</text>
    <text x="14" y="50" font-family="'Share Tech Mono', 'Segoe UI', sans-serif" font-size="26" fill="#00CFFF">122</text>
    <text x="14" y="68" font-family="'Share Tech Mono', 'Segoe UI', sans-serif" font-size="11" fill="#5CA1B8">total stars</text>
    <rect x="12" y="79" width="199" height="8" rx="4" fill="#0A0F18" />
    <rect x="12" y="79" width="80.93" height="8" rx="4" fill="#00CFFF" />
    <text x="209" y="95" text-anchor="end" font-family="'Share Tech Mono', 'Segoe UI', sans-serif" font-size="11" fill="#00CFFF">BUILDING</text>
  </g>
  <g transform="translate(269,92)">
    <rect width="223" height="108" rx="10" fill="#110B16" stroke="#1A0010" />
    <circle cx="18" cy="18" r="8" fill="#FF6633" />
    <text x="34" y="23" font-family="'Share Tech Mono', 'Segoe UI', sans-serif" font-size="13" fill="#FF315A">REPO SHIPYARD</text>
    <text x="14" y="50" font-family="'Share Tech Mono', 'Segoe UI', sans-serif" font-size="26" fill="#00CFFF">31</text>
    <text x="14" y="68" font-family="'Share Tech Mono', 'Segoe UI', sans-serif" font-size="11" fill="#5CA1B8">public repos</text>
    <rect x="12" y="79" width="199" height="8" rx="4" fill="#0A0F18" />
    <rect x="12" y="79" width="154.22" height="8" rx="4" fill="#FF6633" />
    <text x="209" y="95" text-anchor="end" font-family="'Share Tech Mono', 'Segoe UI', sans-serif" font-size="11" fill="#FF6633">ADVANCING</text>
  </g>
  <g transform="translate(508,92)">
    <rect width="223" height="108" rx="10" fill="#110B16" stroke="#1A0010" />
    <circle cx="18" cy="18" r="8" fill="#FF6633" />
    <text x="34" y="23" font-family="'Share Tech Mono', 'Segoe UI', sans-serif" font-size="13" fill="#FF315A">POLYGLOT MATRIX</text>
    <text x="14" y="50" font-family="'Share Tech Mono', 'Segoe UI', sans-serif" font-size="26" fill="#00CFFF">7</text>
    <text x="14" y="68" font-family="'Share Tech Mono', 'Segoe UI', sans-serif" font-size="11" fill="#5CA1B8">languages</text>
    <rect x="12" y="79" width="199" height="8" rx="4" fill="#0A0F18" />
    <rect x="12" y="79" width="139.30" height="8" rx="4" fill="#FF6633" />
    <text x="209" y="95" text-anchor="end" font-family="'Share Tech Mono', 'Segoe UI', sans-serif" font-size="11" fill="#FF6633">ADVANCING</text>
  </g>
  <g transform="translate(747,92)">
    <rect width="223" height="108" rx="10" fill="#110B16" stroke="#1A0010" />
    <circle cx="18" cy="18" r="8" fill="#FF003C" />
    <text x="34" y="23" font-family="'Share Tech Mono', 'Segoe UI', sans-serif" font-size="13" fill="#FF315A">NETWORK SIGNAL</text>
    <text x="14" y="50" font-family="'Share Tech Mono', 'Segoe UI', sans-serif" font-size="26" fill="#00CFFF">440</text>
    <text x="14" y="68" font-family="'Share Tech Mono', 'Segoe UI', sans-serif" font-size="11" fill="#5CA1B8">followers</text>
    <rect x="12" y="79" width="199" height="8" rx="4" fill="#0A0F18" />
    <rect x="12" y="79" width="199.00" height="8" rx="4" fill="#FF003C" />
    <text x="209" y="95" text-anchor="end" font-family="'Share Tech Mono', 'Segoe UI', sans-serif" font-size="11" fill="#FF003C">UNLOCKED</text>
  </g>
  <g transform="translate(30,214)">
    <rect width="223" height="108" rx="10" fill="#110B16" stroke="#1A0010" />
    <circle cx="18" cy="18" r="8" fill="#00CFFF" />
    <text x="34" y="23" font-family="'Share Tech Mono', 'Segoe UI', sans-serif" font-size="13" fill="#FF315A">ACTIVE PULSE</text>
    <text x="14" y="50" font-family="'Share Tech Mono', 'Segoe UI', sans-serif" font-size="26" fill="#00CFFF">6</text>
    <text x="14" y="68" font-family="'Share Tech Mono', 'Segoe UI', sans-serif" font-size="11" fill="#5CA1B8">repos in 90d</text>
    <rect x="12" y="79" width="199" height="8" rx="4" fill="#0A0F18" />
    <rect x="12" y="79" width="119.40" height="8" rx="4" fill="#00CFFF" />
    <text x="209" y="95" text-anchor="end" font-family="'Share Tech Mono', 'Segoe UI', sans-serif" font-size="11" fill="#00CFFF">BUILDING</text>
  </g>
  <g transform="translate(269,214)">
    <rect width="223" height="108" rx="10" fill="#110B16" stroke="#1A0010" />
    <circle cx="18" cy="18" r="8" fill="#00CFFF" />
    <text x="34" y="23" font-family="'Share Tech Mono', 'Segoe UI', sans-serif" font-size="13" fill="#FF315A">FORK IMPACT</text>
    <text x="14" y="50" font-family="'Share Tech Mono', 'Segoe UI', sans-serif" font-size="26" fill="#00CFFF">6</text>
    <text x="14" y="68" font-family="'Share Tech Mono', 'Segoe UI', sans-serif" font-size="11" fill="#5CA1B8">total forks</text>
    <rect x="12" y="79" width="199" height="8" rx="4" fill="#0A0F18" />
    <rect x="12" y="79" width="11.94" height="8" rx="4" fill="#00CFFF" />
    <text x="209" y="95" text-anchor="end" font-family="'Share Tech Mono', 'Segoe UI', sans-serif" font-size="11" fill="#00CFFF">BUILDING</text>
  </g>
  <g transform="translate(508,214)">
    <rect width="223" height="108" rx="10" fill="#110B16" stroke="#1A0010" />
    <circle cx="18" cy="18" r="8" fill="#00CFFF" />
    <text x="34" y="23" font-family="'Share Tech Mono', 'Segoe UI', sans-serif" font-size="13" fill="#FF315A">FLAGSHIP REPO</text>
    <text x="14" y="50" font-family="'Share Tech Mono', 'Segoe UI', sans-serif" font-size="26" fill="#00CFFF">10</text>
    <text x="14" y="68" font-family="'Share Tech Mono', 'Segoe UI', sans-serif" font-size="11" fill="#5CA1B8">max repo stars</text>
    <rect x="12" y="79" width="199" height="8" rx="4" fill="#0A0F18" />
    <rect x="12" y="79" width="19.90" height="8" rx="4" fill="#00CFFF" />
    <text x="209" y="95" text-anchor="end" font-family="'Share Tech Mono', 'Segoe UI', sans-serif" font-size="11" fill="#00CFFF">BUILDING</text>
  </g>
  <g transform="translate(747,214)">
    <rect width="223" height="108" rx="10" fill="#110B16" stroke="#1A0010" />
    <circle cx="18" cy="18" r="8" fill="#FF6633" />
    <text x="34" y="23" font-family="'Share Tech Mono', 'Segoe UI', sans-serif" font-size="13" fill="#FF315A">PROFILE VETERAN</text>
    <text x="14" y="50" font-family="'Share Tech Mono', 'Segoe UI', sans-serif" font-size="26" fill="#00CFFF">4.8</text>
    <text x="14" y="68" font-family="'Share Tech Mono', 'Segoe UI', sans-serif" font-size="11" fill="#5CA1B8">years on GitHub</text>
    <rect x="12" y="79" width="199" height="8" rx="4" fill="#0A0F18" />
    <rect x="12" y="79" width="159.36" height="8" rx="4" fill="#FF6633" />
    <text x="209" y="95" text-anchor="end" font-family="'Share Tech Mono', 'Segoe UI', sans-serif" font-size="11" fill="#FF6633">ADVANCING</text>
  </g>
</svg>
